<svg xmlns="http://www.w3.org/2000/svg" viewBox="0 0 378.59 230.42"><defs><style>.cls-1{isolation:isolate;}.cls-2{opacity:0.2;}.cls-3{opacity:0.58;}.cls-4{fill:#84ce9d;}.cls-5{opacity:0.6;}.cls-6{opacity:0.29;}.cls-7{opacity:0.41;}.cls-8{fill:#95e887;}.cls-9{opacity:0.25;}.cls-10,.cls-19,.cls-23,.cls-32{fill:none;}.cls-10{stroke:#fff;stroke-linecap:round;stroke-linejoin:round;stroke-width:0.52px;}.cls-11{fill:#6ab782;}.cls-12,.cls-36,.cls-37{fill:#fff;}.cls-13{fill:#c0edff;}.cls-14{fill:#86eaa4;}.cls-15{fill:#96cc9e;}.cls-16{fill:#c1e8c9;}.cls-17{fill:#6fc987;}.cls-18{fill:#f0fff2;}.cls-19{stroke:#6fc987;}.cls-19,.cls-23,.cls-31,.cls-32{stroke-miterlimit:10;}.cls-19,.cls-23,.cls-32{stroke-width:0.7px;}.cls-20{fill:#76d38e;}.cls-21{fill:#c8e94b;}.cls-22{fill:#a5c437;}.cls-23{stroke:#6ab782;}.cls-24{fill:#f7b935;}.cls-25{fill:#db5c45;}.cls-26{fill:#c64938;}.cls-27{fill:#173f64;}.cls-28{fill:#0c2c44;}.cls-29{fill:#1e6072;}.cls-30{fill:#184656;}.cls-31{fill:#f5fcff;stroke:#0e2833;stroke-width:1.4px;}.cls-32{stroke:#40a05d;}.cls-33{fill:#c1e3ec;}.cls-34{fill:#fec784;}.cls-35{fill:#0b343f;}.cls-36,.cls-64{opacity:0.5;}.cls-36,.cls-37{mix-blend-mode:soft-light;}.cls-37,.cls-63{opacity:0.4;}.cls-38{fill:#c9c9c9;opacity:0.8;}.cls-38,.cls-42,.cls-63{mix-blend-mode:multiply;}.cls-39{fill:#feaf84;}.cls-40{fill:#222b70;}.cls-41{fill:#383874;}.cls-42{opacity:0.35;}.cls-43{fill:#5275a0;}.cls-44{fill:#ed6d52;}.cls-45{fill:#8fcaf2;}.cls-46{fill:#b1dafc;}.cls-47{fill:#1c4757;}.cls-48{fill:#f29870;}.cls-49{fill:#db5842;}.cls-50{fill:#e2e2e2;}.cls-51{fill:#fcb6ac;}.cls-52{fill:#153351;}.cls-53{fill:#174555;}.cls-54{fill:#011035;}.cls-55{fill:#e59470;}.cls-56{fill:#2f5b77;}.cls-57{fill:#44b194;}.cls-58{fill:#3ca083;}.cls-59{fill:#e95f5c;}.cls-60{fill:#ffbe9d;}.cls-61{fill:#f2a181;}.cls-62{fill:#2c2c60;}.cls-63{fill:#7f7f7f;}.cls-65{fill:#f9ce9b;}.cls-66{fill:#71d38a;}</style></defs><title>img-home</title><g class="cls-1"><g id="OBJECTS"><g class="cls-2"><g class="cls-3"><path class="cls-4" d="M188.11,87.45V48.78L159.8,77.45v47.67H141.57V56.8h-4.64l-13.2-11.44L110.45,56.8h-4.56V149H38.8v90.49H232.32v-152ZM136.93,112h-26.4v-2.5h26.4Zm0-5h-26.4v-2.5h26.4Zm0-5h-26.4V99.5h26.4Zm0-5h-26.4V94.51h26.4Zm0-5h-26.4v-2.5h26.4Zm0-5h-26.4v-2.5h26.4Zm0-5h-26.4V79.55h26.4Zm0-5h-26.4v-2.5h26.4Zm0-5h-26.4v-2.5h26.4Zm0-5h-26.4V64.59h26.4Zm0-5h-26.4V59.6h26.4Zm47.59,121.48h-2.74V60.85l2.74-2.79Z" transform="translate(-14.7 -20.1)"/></g><g class="cls-5"><path class="cls-4" d="M341.44,125.12V56.8H336.8L323.6,45.36,310.33,56.8h-4.57V149H238.67v90.49h120V125.12ZM336.8,112H310.4v-2.51h26.4Zm0-5H310.4v-2.5h26.4Zm0-5H310.4v-2.5h26.4Zm0-5H310.4V94.51h26.4Zm0-5H310.4v-2.5h26.4Zm0-5H310.4v-2.5h26.4Zm0-5H310.4V79.55h26.4Zm0-5H310.4V74.56h26.4Zm0-5H310.4v-2.5h26.4Zm0-5H310.4v-2.5h26.4Zm0-5H310.4V59.6h26.4Z" transform="translate(-14.7 -20.1)"/></g><g class="cls-6"><path class="cls-4" d="M315.75,152.42V65h-4.26V56.17H278.62V65h-4.23V174.9H243.54V125.13H198.6v65.31H176.89v-117H132.63v89.87h-5.19V109.84h-8L97.11,98.91v10.93H92.23V175.9H81.39V86.43h-11V55h-1.5V86.43H58V239.68H343.44V152.42Zm-237-8.5H60.67V142H78.75Zm0-4.5H60.67v-1.94H78.75Zm0-4.5H60.67V133H78.75Zm0-4.5H60.67v-1.94H78.75Zm0-4.5H60.67V124H78.75Zm0-4.51H60.67v-1.94H78.75Zm0-4.49H60.67v-2H78.75Zm0-4.5H60.67v-2H78.75Zm0-4.51H60.67V106H78.75Zm0-4.5H60.67v-1.94H78.75Zm0-4.5H60.67V97H78.75Zm0-4.5H60.67v-2H78.75Zm0-4.5H60.67V88H78.75Zm63.42,26.79h-5.39v-5h5.39Zm0-8.31h-5.39v-5h5.39Zm0-8.32h-5.39v-5h5.39Zm0-8.31h-5.39v-5h5.39Zm0-8.32h-5.39v-5h5.39Zm10.22,33.26H147v-5h5.37Zm0-8.31H147v-5h5.37Zm0-8.32H147v-5h5.37Zm0-8.31H147v-5h5.37Zm0-8.32H147v-5h5.37Zm10.24,33.26h-5.39v-5h5.39Zm0-8.31h-5.39v-5h5.39Zm0-8.32h-5.39v-5h5.39Zm0-8.31h-5.39v-5h5.39Zm0-8.32h-5.39v-5h5.39Zm10.22,33.26h-5.37v-5h5.37Zm0-8.31h-5.37v-5h5.37Zm0-8.32h-5.37v-5h5.37Zm0-8.31h-5.37v-5h5.37ZM320,193.56h-5.59v-5.19H320Zm0-10.39h-5.59V178H320Zm0-10.38h-5.59V167.6H320Zm0-10.38h-5.59v-5.19H320Zm10.39,31.15h-5.6v-5.19h5.6Zm0-10.39h-5.6V178h5.6Zm0-10.38h-5.6V167.6h5.6Zm0-10.38h-5.6v-5.19h5.6Zm10.38,31.15h-5.6v-5.19h5.6Zm0-10.39h-5.6V178h5.6Zm0-10.38h-5.6V167.6h5.6Zm0-10.38h-5.6v-5.19h5.6Z" transform="translate(-14.7 -20.1)"/></g><g class="cls-7"><path class="cls-4" d="M329.9,125.13v65.3H308.19v-117H263.93v89.87h-5.19v-53.5h-8L228.41,98.91v10.92h-4.88V175.9H212.69V86.43h-11V55h-1.5V86.43h-11V239.68H358.64V125.13ZM210.05,143.92H192V142h18.09Zm0-4.5H192v-1.94h18.09Zm0-4.5H192V133h18.09Zm0-4.5H192v-1.94h18.09Zm0-4.5H192V124h18.09Zm0-4.5H192v-2h18.09Zm0-4.5H192v-2h18.09Zm0-4.5H192v-2h18.09Zm0-4.51H192V106h18.09Zm0-4.5H192v-1.94h18.09Zm0-4.5H192V97h18.09Zm0-4.5H192v-2h18.09Zm0-4.5H192V88h18.09Zm63.42,26.79h-5.39v-5h5.39Zm0-8.31h-5.39v-5h5.39Zm0-8.32h-5.39v-5h5.39Zm0-8.31h-5.39v-5h5.39Zm0-8.32h-5.39v-5h5.39Zm10.22,33.26h-5.38v-5h5.38Zm0-8.31h-5.38v-5h5.38Zm0-8.32h-5.38v-5h5.38Zm0-8.31h-5.38v-5h5.38Zm0-8.32h-5.38v-5h5.38Zm10.24,33.26h-5.39v-5h5.39Zm0-8.31h-5.39v-5h5.39Zm0-8.32h-5.39v-5h5.39Zm0-8.31h-5.39v-5h5.39Zm0-8.32h-5.39v-5h5.39Zm10.22,33.26h-5.37v-5h5.37Zm0-8.31h-5.37v-5h5.37Zm0-8.32h-5.37v-5h5.37Zm0-8.31h-5.37v-5h5.37Z" transform="translate(-14.7 -20.1)"/></g></g><path class="cls-8" d="M102.29,138.53c-1-2.13-2.05-4.35-2-6.71a29.48,29.48,0,0,1,.53-6.71,17.73,17.73,0,0,0,.44-6.49c-.74-6.81-3.61-6.38-4.68-6s-1.65,1.42-1.89,3.17c-.2,1.41.08,8.12-2,6.91-2.37-1.4-1.55-8.29-1.7-10.62-.22-3.5-1.24-7.33-3.62-10-1.17-1.31-3-2.37-4.64-1.77a4.05,4.05,0,0,0-2.14,2.22c-1.33,2.88-.63,6.09.25,9,.37,1.22,3.8,7,.56,6.14-.78-.21-6.8-6-8-.79-.43,1.86,1.47,4,4.55,6.76,1.92,1.73,9.2,6.46,8.6,8.5s-4.53-1.73-4.43,2.19c.06,2.19,2.74,4,4.58,5.07.87.49,1.85.8,2.69,1.34,1,.64,2.16,2.06,1.22,3.23-.41.51-1.12.71-1.51,1.23a1.89,1.89,0,0,0-.09,1.9,4.41,4.41,0,0,0,1.33,1.46,17.27,17.27,0,0,0,12.1,3A39.89,39.89,0,0,0,114.69,148" transform="translate(-14.7 -20.1)"/><g class="cls-9"><path class="cls-10" d="M84.44,104.15s2,23.08,14.23,38.63" transform="translate(-14.7 -20.1)"/><path class="cls-10" d="M76.61,118.4s7,6.8,13.26,8.32" transform="translate(-14.7 -20.1)"/><path class="cls-10" d="M97.45,115.57c0,3.6-.7,13.56-4.57,18" transform="translate(-14.7 -20.1)"/><path class="cls-10" d="M84.91,135.36s2.74,2.93,12,5" transform="translate(-14.7 -20.1)"/><path class="cls-10" d="M90.9,146a14.89,14.89,0,0,0,9.27-.71" transform="translate(-14.7 -20.1)"/></g><path class="cls-11" d="M63.54,216.08S54.87,185,45.76,189.66C36,194.74,59,204,60.64,217" transform="translate(-14.7 -20.1)"/><path class="cls-11" d="M62.6,217.62s-15.86-22.56-21.84-16.17c-6.44,6.88,14.71,7.78,19.77,17.74" transform="translate(-14.7 -20.1)"/><path class="cls-11" d="M61.67,217.29S37,205,34.77,213.44c-2.4,9.12,16.64-.15,25.82,6.21" transform="translate(-14.7 -20.1)"/><path class="cls-11" d="M362.39,229s6.4-23,13.14-19.52c7.25,3.75-9.75,10.61-11,20.2" transform="translate(-14.7 -20.1)"/><path class="cls-11" d="M363.08,230.12s11.72-16.67,16.14-12c4.76,5.09-10.87,5.75-14.61,13.11" transform="translate(-14.7 -20.1)"/><path class="cls-11" d="M363.77,229.87s18.24-9.1,19.88-2.84c1.77,6.74-12.3-.11-19.08,4.59" transform="translate(-14.7 -20.1)"/><polyline class="cls-12" points="314.72 141.45 300.67 196.54 303.34 197.22 320.73 142.98"/><path class="cls-13" d="M335,147.49c-.24.92-4.28,16.76-4.28,16.76a1.58,1.58,0,0,0,1.14,1.91h0a1.58,1.58,0,0,0,1.92-1.14l.48-1.89s2.24-4.78,8.44-2.81c0,0-7.39-.92-7.65-.91S335.27,146.58,335,147.49Z" transform="translate(-14.7 -20.1)"/><polyline class="cls-12" points="312.65 140.95 312.61 197.8 309.85 197.8 306.45 140.94"/><path class="cls-13" d="M325.4,146c0,1,0,17.29,0,17.29a1.57,1.57,0,0,1-1.57,1.57h0a1.56,1.56,0,0,1-1.57-1.57v-2s-1-5.19-7.49-4.81c0,0,7.4.93,7.64,1S325.4,145.1,325.4,146Z" transform="translate(-14.7 -20.1)"/><path class="cls-14" d="M328.35,163.63a4.07,4.07,0,0,0,7.88,2,6.53,6.53,0,0,1,.76-2c.79-1.12,2.4-1.54,5.3-.83l.13,0c7.18,1.83,14.81-3.73,17-12.4s-1.83-17.21-9-19-14.81,3.74-17,12.41c-.08.31-.13.62-.2.93h0Zm15.3-5.65c-4.51-1.15-6.94-7-5.41-13s6.46-10,11-8.81,6.94,7,5.41,13S348.17,159.14,343.65,158Z" transform="translate(-14.7 -20.1)"/><path class="cls-14" d="M301,142.81c0,8.95,6,16.23,13.42,16.23h.2c2.94,0,4.38.85,4.86,2.12a6.5,6.5,0,0,1,.24,2.18,4.06,4.06,0,0,0,8.12,0V143.78h0c0-.32,0-.63,0-.95,0-9-6-16.23-13.42-16.23S301,133.86,301,142.81Zm5,0c0-6.2,3.8-11.24,8.46-11.24s8.45,5.05,8.44,11.26-3.8,11.24-8.46,11.24S306,149,306,142.81Z" transform="translate(-14.7 -20.1)"/><path class="cls-15" d="M316.23,140a.3.3,0,0,0,.29-.29l.11-1.57a.33.33,0,0,0-.29-.34.31.31,0,0,0-.33.3l-.11,1.57a.31.31,0,0,0,.29.33Z" transform="translate(-14.7 -20.1)"/><polygon class="cls-16" points="294.65 191.53 298.81 191.81 303.26 124.63 301.18 124.49 299.1 124.35 294.65 191.53"/><polygon class="cls-16" points="301.13 118.91 301.97 118.97 303.26 124.63 299.1 124.35 301.13 118.91"/><path class="cls-16" d="M299.19,132h7.27a0,0,0,0,1,0,0v62.2a1.22,1.22,0,0,1-1.22,1.22h-4.82a1.22,1.22,0,0,1-1.22-1.22V132A0,0,0,0,1,299.19,132Z" transform="translate(615.23 250.96) rotate(169.76)"/><path class="cls-17" d="M294.17,132.48h7.27a0,0,0,0,1,0,0v5.71a1.22,1.22,0,0,1-1.22,1.22H295.4a1.22,1.22,0,0,1-1.22-1.22v-5.71a0,0,0,0,1,0,0Z" transform="translate(600.33 196.7) rotate(169.76)"/><rect class="cls-18" x="294.98" y="139.34" width="7.27" height="2.18" transform="translate(-34.91 35.2) rotate(-10.24)"/><rect class="cls-16" x="286.41" y="141.89" width="12.54" height="67.86" transform="translate(614.74 211.97) rotate(158.49)"/><line class="cls-19" x1="264.36" y1="127" x2="260.51" y2="128.51"/><line class="cls-19" x1="265.65" y1="130.27" x2="261.8" y2="131.79"/><line class="cls-19" x1="266.94" y1="133.55" x2="263.1" y2="135.07"/><line class="cls-19" x1="270.12" y1="136.09" x2="264.39" y2="138.35"/><line class="cls-19" x1="269.53" y1="140.11" x2="265.68" y2="141.63"/><line class="cls-19" x1="270.82" y1="143.39" x2="266.97" y2="144.91"/><line class="cls-19" x1="272.11" y1="146.67" x2="268.27" y2="148.19"/><line class="cls-19" x1="275.28" y1="149.21" x2="269.56" y2="151.47"/><line class="cls-19" x1="274.7" y1="153.23" x2="270.85" y2="154.74"/><line class="cls-19" x1="275.99" y1="156.51" x2="272.14" y2="158.02"/><line class="cls-19" x1="277.28" y1="159.79" x2="273.44" y2="161.3"/><line class="cls-19" x1="280.46" y1="162.32" x2="274.73" y2="164.58"/><line class="cls-19" x1="279.87" y1="166.35" x2="276.02" y2="167.86"/><line class="cls-19" x1="281.16" y1="169.62" x2="277.31" y2="171.14"/><line class="cls-19" x1="282.45" y1="172.9" x2="278.61" y2="174.42"/><line class="cls-19" x1="285.63" y1="175.44" x2="279.9" y2="177.7"/><line class="cls-19" x1="285.04" y1="179.46" x2="281.19" y2="180.98"/><line class="cls-19" x1="286.33" y1="182.74" x2="282.48" y2="184.26"/><line class="cls-19" x1="287.62" y1="186.02" x2="283.78" y2="187.54"/><path class="cls-20" d="M337.71,178.66l-6.21,56.11a5.07,5.07,0,0,1-5.05,4.51h-31a5.07,5.07,0,0,1-5-4.51l-6.21-56.11a1.29,1.29,0,0,1,1.28-1.46h50.94A1.3,1.3,0,0,1,337.71,178.66Z" transform="translate(-14.7 -20.1)"/><path class="cls-14" d="M337.71,178.66l-6.21,56.11a5.07,5.07,0,0,1-5.05,4.51H307.3a5.07,5.07,0,0,1-5.05-4.51L296,178.66a1.3,1.3,0,0,1,1.29-1.46h39.09A1.3,1.3,0,0,1,337.71,178.66Z" transform="translate(-14.7 -20.1)"/><path class="cls-4" d="M328.13,215.58a18.73,18.73,0,0,0-4.07.43,25.35,25.35,0,0,0-35.29-15.14,10.13,10.13,0,0,0-3.63-7.92s-4.1,4.82-1.78,10.83A10.18,10.18,0,0,0,273,202.6a11.71,11.71,0,0,0,6.64,5.82,26.36,26.36,0,0,0-2.24,3.59,4.68,4.68,0,0,0-1.59-.3,4.59,4.59,0,0,0-4.58,4.34,18.69,18.69,0,0,0-4.19-.47,19.3,19.3,0,0,0-19.31,19.31,19,19,0,0,0,.63,4.79h98.49a19.22,19.22,0,0,0-18.68-24.1Z" transform="translate(-14.7 -20.1)"/><path class="cls-8" d="M371.82,235.83a15.74,15.74,0,0,1-.5,3.85h-79a15.2,15.2,0,0,1,1.57-11.58,15.45,15.45,0,0,1,20-6.26,20.38,20.38,0,0,1,39.15-1.15,15.29,15.29,0,0,1,3.26-.35A15.5,15.5,0,0,1,371.82,235.83Z" transform="translate(-14.7 -20.1)"/><path class="cls-4" d="M316.49,237.25a9.75,9.75,0,0,1-.32,2.43h-49.8a9.75,9.75,0,0,1,9.44-12.19,9.89,9.89,0,0,1,4.18.94,12.85,12.85,0,0,1,24.68-.72,9.9,9.9,0,0,1,2.05-.22A9.77,9.77,0,0,1,316.49,237.25Z" transform="translate(-14.7 -20.1)"/><path class="cls-21" d="M265.27,219.58a8.55,8.55,0,0,0-2.49,6.72,8.29,8.29,0,0,0-6.33-3.22s0,7.28,8.35,8.19h0S270.05,225.61,265.27,219.58Z" transform="translate(-14.7 -20.1)"/><path class="cls-4" d="M305.85,194.45a5.76,5.76,0,0,0-3.39,3.42,5.58,5.58,0,0,0-3-3.73s-2,4.47,2.85,7.34h0S307.11,199.46,305.85,194.45Z" transform="translate(-14.7 -20.1)"/><path class="cls-8" d="M350.57,208.8a5.79,5.79,0,0,0-4.75.81,5.53,5.53,0,0,0-.26-4.76s-4.24,2.45-1.95,7.62h0S348.68,213.61,350.57,208.8Z" transform="translate(-14.7 -20.1)"/><path class="cls-4" d="M328.94,214.83a5.78,5.78,0,0,0-1.68,4.51,5.58,5.58,0,0,0-4.25-2.16s0,4.89,5.61,5.51h0S332.15,218.88,328.94,214.83Z" transform="translate(-14.7 -20.1)"/><path class="cls-4" d="M315.33,224.33a5.77,5.77,0,0,0-4.18,2.4,5.59,5.59,0,0,0-1.89-4.38s-3.13,3.77.8,7.82h0S315.21,229.5,315.33,224.33Z" transform="translate(-14.7 -20.1)"/><path class="cls-8" d="M358.62,218.51a3.39,3.39,0,0,0-2.25,1.66,3.24,3.24,0,0,0-1.38-2.4,3.34,3.34,0,0,0,1,4.46h0A3.53,3.53,0,0,0,358.62,218.51Z" transform="translate(-14.7 -20.1)"/><path class="cls-21" d="M284.94,211a5.76,5.76,0,0,0-.36,4.81,5.58,5.58,0,0,0-4.69-.9s1.36,4.71,6.92,3.74h0S289.15,214,284.94,211Z" transform="translate(-14.7 -20.1)"/><path class="cls-8" d="M115,215.58a18.87,18.87,0,0,0-4.07.43,25.35,25.35,0,0,0-35.29-15.14A10.13,10.13,0,0,0,72,193s-4.1,4.82-1.78,10.83a10.17,10.17,0,0,0-10.39-1.18,11.71,11.71,0,0,0,6.64,5.82A24.53,24.53,0,0,0,64.24,212a4.69,4.69,0,0,0-1.6-.3,4.58,4.58,0,0,0-4.57,4.34,18.77,18.77,0,0,0-4.2-.47,19.22,19.22,0,0,0-18.68,24.1h98.5a19.9,19.9,0,0,0,.62-4.79A19.31,19.31,0,0,0,115,215.58Z" transform="translate(-14.7 -20.1)"/><path class="cls-11" d="M151.12,235.83a15.74,15.74,0,0,1-.5,3.85h-79a15.28,15.28,0,0,1-.51-3.85,15.47,15.47,0,0,1,22.12-14,20.37,20.37,0,0,1,39.14-1.15,15.31,15.31,0,0,1,3.27-.35A15.5,15.5,0,0,1,151.12,235.83Z" transform="translate(-14.7 -20.1)"/><path class="cls-11" d="M105.46,237.25a9.75,9.75,0,0,1-.32,2.43H55.34a9.75,9.75,0,0,1,9.45-12.19,9.88,9.88,0,0,1,4.17.94,12.85,12.85,0,0,1,24.68-.72,9.9,9.9,0,0,1,2-.22A9.76,9.76,0,0,1,105.46,237.25Z" transform="translate(-14.7 -20.1)"/><path class="cls-11" d="M54.25,219.58a8.58,8.58,0,0,0-2.5,6.72,8.29,8.29,0,0,0-6.33-3.22s0,7.28,8.35,8.19h0S59,225.61,54.25,219.58Z" transform="translate(-14.7 -20.1)"/><path class="cls-21" d="M94.82,194.45a5.76,5.76,0,0,0-3.39,3.42,5.59,5.59,0,0,0-3-3.73s-2,4.47,2.84,7.34h0S96.08,199.46,94.82,194.45Z" transform="translate(-14.7 -20.1)"/><path class="cls-21" d="M129.88,208.8a5.79,5.79,0,0,0-4.75.81,5.57,5.57,0,0,0-.27-4.76s-4.23,2.45-1.94,7.62h0S128,213.61,129.88,208.8Z" transform="translate(-14.7 -20.1)"/><path class="cls-22" d="M111.86,214.83a5.78,5.78,0,0,0-1.68,4.51,5.58,5.58,0,0,0-4.26-2.16s0,4.89,5.62,5.51h0S115.07,218.88,111.86,214.83Z" transform="translate(-14.7 -20.1)"/><path class="cls-22" d="M104.3,224.33a5.77,5.77,0,0,0-4.18,2.4,5.56,5.56,0,0,0-1.89-4.38s-3.13,3.77.8,7.82h0S104.18,229.5,104.3,224.33Z" transform="translate(-14.7 -20.1)"/><path class="cls-22" d="M137.93,218.51a3.37,3.37,0,0,0-2.25,1.66,3.24,3.24,0,0,0-1.38-2.4,3.33,3.33,0,0,0,1,4.46h0A3.54,3.54,0,0,0,137.93,218.51Z" transform="translate(-14.7 -20.1)"/><path class="cls-11" d="M73.91,211a5.8,5.8,0,0,0-.36,4.81,5.58,5.58,0,0,0-4.69-.9s1.36,4.71,6.93,3.74h0S78.12,214,73.91,211Z" transform="translate(-14.7 -20.1)"/><line class="cls-23" y1="219.58" x2="378.59" y2="219.58"/><path class="cls-24" d="M124.81,118a.14.14,0,0,1-.1-.17l.42-1.4a.13.13,0,0,1,.17-.09.14.14,0,0,1,.1.17l-.42,1.4A.14.14,0,0,1,124.81,118Z" transform="translate(-14.7 -20.1)"/><polygon class="cls-24" points="106.26 91.12 105.56 92.31 106.83 91.91 106.26 91.12"/><path class="cls-25" d="M124.44,110.1a1.83,1.83,0,1,1-2.24-1.29A1.83,1.83,0,0,1,124.44,110.1Z" transform="translate(-14.7 -20.1)"/><path class="cls-25" d="M126,111.26a2.22,2.22,0,0,0-3.52.3c-1.64,1.34,1.21,8.4,8.82,4.18C131.33,115.74,128.8,113.65,126,111.26Z" transform="translate(-14.7 -20.1)"/><path class="cls-26" d="M125.44,110.81c-.85-.19-3.17.49-1.43,3.18,1.63,2.5,5.74,1.14,5.74,1.14S127.81,111.33,125.44,110.81Z" transform="translate(-14.7 -20.1)"/><path class="cls-24" d="M125.94,118a.14.14,0,0,1-.14-.14v-1.46a.15.15,0,0,1,.14-.14.14.14,0,0,1,.14.14v1.46A.14.14,0,0,1,125.94,118Z" transform="translate(-14.7 -20.1)"/><path class="cls-27" d="M118.57,110.48a2,2,0,1,1-2-2A2,2,0,0,1,118.57,110.48Z" transform="translate(-14.7 -20.1)"/><path class="cls-28" d="M114.43,112.26a8.58,8.58,0,0,1,.59,5.92s-3.53-3.57-.89-6A.19.19,0,0,1,114.43,112.26Z" transform="translate(-14.7 -20.1)"/><path class="cls-28" d="M118.59,112.22a8.59,8.59,0,0,0-.59,5.92s3.53-3.56.89-6A.2.2,0,0,0,118.59,112.22Z" transform="translate(-14.7 -20.1)"/><path class="cls-27" d="M119.26,113.35c0,2.79-2.71,6-2.71,6s-2.72-2.95-2.72-6c0-1.11,1.6-2,2.72-2S119.26,112.24,119.26,113.35Z" transform="translate(-14.7 -20.1)"/><polygon class="cls-24" points="103.36 90.61 102.97 91.41 104.18 91.52 103.36 90.61"/><path class="cls-29" d="M298.4,123.67V234a5.72,5.72,0,0,1-5.71,5.72H102.45A5.72,5.72,0,0,1,96.73,234V123.67a5.73,5.73,0,0,1,5.72-5.72H292.69A5.72,5.72,0,0,1,298.4,123.67Z" transform="translate(-14.7 -20.1)"/><path class="cls-30" d="M297.69,124.25V233.1a5.67,5.67,0,0,1-5.67,5.65H103.22a5.66,5.66,0,0,1-5.67-5.65V124.25a5.66,5.66,0,0,1,5.67-5.65H292A5.67,5.67,0,0,1,297.69,124.25Z" transform="translate(-14.7 -20.1)"/><rect class="cls-31" x="97.31" y="103.19" width="171.33" height="111.08"/><line class="cls-32" x1="211.49" y1="146.22" x2="121.54" y2="146.22"/><rect class="cls-33" x="176.55" y="156.64" width="40.94" height="2.09"/><rect class="cls-33" x="119.39" y="116.64" width="92.1" height="2.09"/><rect class="cls-33" x="119.39" y="121" width="92.1" height="2.09"/><rect class="cls-33" x="119.39" y="125.36" width="92.1" height="2.09"/><rect class="cls-33" x="119.39" y="129.94" width="92.1" height="2.09"/><rect class="cls-33" x="119.39" y="134.3" width="92.1" height="2.09"/><rect class="cls-33" x="119.39" y="138.66" width="92.1" height="2.09"/><rect class="cls-33" x="168.17" y="174.09" width="49.32" height="2.09"/><rect class="cls-33" x="168.17" y="178.45" width="29.97" height="2.09"/><rect class="cls-33" x="168.17" y="182.81" width="49.32" height="2.09"/><rect class="cls-33" x="168.17" y="187.17" width="35.91" height="2.09"/><rect class="cls-33" x="168.17" y="191.53" width="49.32" height="2.09"/><rect class="cls-33" x="168.17" y="195.9" width="19.61" height="2.09"/><rect class="cls-33" x="189.3" y="195.9" width="12.8" height="2.09"/><rect class="cls-33" x="111.99" y="200.26" width="70.87" height="2.09"/><rect class="cls-33" x="184.87" y="200.26" width="34.54" height="2.09"/><rect class="cls-33" x="111.99" y="204.62" width="26.78" height="2.09"/><rect class="cls-33" x="141.42" y="204.62" width="34.23" height="2.09"/><rect class="cls-33" x="177.98" y="204.62" width="34.49" height="2.09"/><rect class="cls-33" x="225.09" y="116.34" width="37.33" height="29.28"/><polygon class="cls-4" points="225.09 145.62 233.18 134.26 241.28 145.62 225.09 145.62"/><polygon class="cls-4" points="233.69 145.62 248.05 125.46 262.42 145.62 233.69 145.62"/><path class="cls-34" d="M253.4,143.05a4.16,4.16,0,1,1-4.16-4.15A4.15,4.15,0,0,1,253.4,143.05Z" transform="translate(-14.7 -20.1)"/><rect class="cls-33" x="111.99" y="156.34" width="52.11" height="40.88"/><polygon class="cls-4" points="111.99 197.22 123.29 181.36 134.59 197.22 111.99 197.22"/><polygon class="cls-4" points="124 197.22 144.05 169.07 164.1 197.22 124 197.22"/><circle class="cls-34" cx="125.19" cy="165.57" r="5.8"/><rect class="cls-4" x="225.09" y="156.64" width="25.9" height="25.04"/><rect class="cls-33" x="236.51" y="181.68" width="25.9" height="25.04"/><path class="cls-35" d="M290.53,190.89h0a1.26,1.26,0,0,1-1.25-1.26V168a1.25,1.25,0,0,1,1.25-1.26h0a1.25,1.25,0,0,1,1.26,1.26v21.59A1.26,1.26,0,0,1,290.53,190.89Z" transform="translate(-14.7 -20.1)"/><path class="cls-35" d="M104.49,190.89h0A4.92,4.92,0,0,1,99.57,186V171.7a4.92,4.92,0,0,1,4.92-4.92h0a4.92,4.92,0,0,1,4.92,4.92V186A4.92,4.92,0,0,1,104.49,190.89Z" transform="translate(-14.7 -20.1)"/><path class="cls-36" d="M216.8,118,181.69,239.71H102.45A5.71,5.71,0,0,1,96.73,234V123.67a5.73,5.73,0,0,1,5.72-5.72Z" transform="translate(-14.7 -20.1)"/><path class="cls-37" d="M216.8,118,181.69,239.71H102.45A5.71,5.71,0,0,1,96.73,234V123.67a5.73,5.73,0,0,1,5.72-5.72Z" transform="translate(-14.7 -20.1)"/><path class="cls-37" d="M199.51,118,164.4,239.71H102.45A5.71,5.71,0,0,1,96.73,234V123.67a5.73,5.73,0,0,1,5.72-5.72Z" transform="translate(-14.7 -20.1)"/><path class="cls-38" d="M282.11,114.79l-.72,4.06s-1.38,1-5.36,1.7c-2.1.37-5.32.53-5.32.53a16.65,16.65,0,0,1,.21,5.08c-.4,1.93-3.67,16.63-3.67,16.63l-.7.44v1.51a2.59,2.59,0,0,1,.7.91,8.61,8.61,0,0,1,.19,2.07l-2.13.31c-.33,0-.69-.66-1.05-.62-2.47.33-5.48,1.42-5.48,1.17a2.75,2.75,0,0,1,.61-1.17l3.58-.61.84-25.72s-3.52.29-3.66.81.12,3.3.11,4.55-1.48,15-1.48,15a2.84,2.84,0,0,0-.56.19c0,.13-.26.47-.11,1,.2.72.83,1.71.67,2.06-.26.6-1.73.67-1.73.67l-1-4.94-.42-10.59-.6-6.67,1.13-5.42,8.4-1.9,17.13-1.14" transform="translate(-14.7 -20.1)"/><path class="cls-39" d="M255,141.09a18.26,18.26,0,0,0,0,2.23c.1.59,2,.47,2.18.15a16.93,16.93,0,0,0,.07-3.05" transform="translate(-14.7 -20.1)"/><path class="cls-40" d="M257.7,144.05c0,.62,0,1.78,0,1.78l-1.94.4-.23-.34a3.35,3.35,0,0,1-1.16.57,7.43,7.43,0,0,1-1.82.11c-1.59-.17-2.67-.7-2.72-.94-.19-1,4.46-1.71,4.72-2.34.2-.45.1-.56.36-.48a.62.62,0,0,1,.4.3,1.16,1.16,0,0,0,1.2.57,1.37,1.37,0,0,0,.74-.39A.78.78,0,0,1,257.7,144.05Z" transform="translate(-14.7 -20.1)"/><path class="cls-41" d="M271.67,118.9c-2.9-.05-10.57,1.15-13.5,1.4a33.9,33.9,0,0,1,.84,4.53,120,120,0,0,1-1.3,16.83,2.08,2.08,0,0,1-2.84,0c-1.31-7.48-3.18-22.47-2.48-25.48.88-3.84,12.59-6.88,19.84-6.31" transform="translate(-14.7 -20.1)"/><g class="cls-42"><path class="cls-43" d="M272.23,109.83c-5.12-.4-12.46,1-16.64,3.2a10.24,10.24,0,0,1,2.48,1.55,3.93,3.93,0,0,1,1.42,2.91,9.78,9.78,0,0,1-.34,2.71c3.39-.37,9.9-1.34,12.52-1.3Z" transform="translate(-14.7 -20.1)"/></g><path class="cls-39" d="M262.17,143.39a18.9,18.9,0,0,0,.1,2.22c.12.59,2,.4,2.18.07a16.75,16.75,0,0,0,0-3.05" transform="translate(-14.7 -20.1)"/><path class="cls-40" d="M265,146.24c.05.62.05,1.78.05,1.78l-1.93.47-.25-.33a3.43,3.43,0,0,1-1.13.62,8,8,0,0,1-1.82.17c-1.6-.1-2.7-.6-2.75-.83-.23-1,4.39-1.88,4.63-2.52.18-.46.08-.56.34-.5a.65.65,0,0,1,.41.29,1.15,1.15,0,0,0,1.22.52,1.35,1.35,0,0,0,.73-.42A.8.8,0,0,1,265,146.24Z" transform="translate(-14.7 -20.1)"/><path class="cls-41" d="M283,110.21c.76,1.77,1.19,5.06.5,6.5a3.6,3.6,0,0,1-2.13,2.14c-3.65,1.63-9.08,1.3-14.57,1,2.27,6.12-1.26,18.51-1.77,24.07a3.1,3.1,0,0,1-3.22-.06c.23-11.31-2.29-27.12-.77-29.82.93-1.65,12-3.82,12.23-3.79" transform="translate(-14.7 -20.1)"/><path class="cls-39" d="M268.17,97.22c-.62-.2-2.23-2.42-2.73-2.31-.45.61-1,4.51-1,4.51-.17,1.11-6.95,11.3-6.95,11.3a2.16,2.16,0,0,0,.75,1.36,5.41,5.41,0,0,0,1.46.76s7.34-8.08,9-10.91C268.84,101.36,269.6,97.69,268.17,97.22Z" transform="translate(-14.7 -20.1)"/><path class="cls-44" d="M272.83,91.12s-1.32,3.08-2.7,6.1a3.21,3.21,0,0,0-1.54-.5,15.92,15.92,0,0,1-4.32-.87c.67-2.68,1.42-5.76,1.56-6.4a7.48,7.48,0,0,1,1.86-3.83Z" transform="translate(-14.7 -20.1)"/><path class="cls-44" d="M283.08,110.3c-3,.38-8.48.24-12.22.38-3.34.12-4,.76-4,.76.13-4.77.83-8.2.59-11.75-.42-6-.95-12.73.24-14.07,2.33-1.78,7.05-2.52,11.91-1,3.66,1.13,4.81,2.21,4.59,5-.06.81-2,12.4-1.53,18.2a2.74,2.74,0,0,0,.45,1.22C283.47,109.58,283.41,110.07,283.08,110.3Z" transform="translate(-14.7 -20.1)"/><polygon class="cls-45" points="262.83 90.24 245.1 90.5 255.75 94.19 262.83 90.24"/><polygon class="cls-46" points="255.72 94.61 262.79 90.86 262.83 90.24 255.63 94 255.72 94.61"/><path class="cls-39" d="M269.4,108.44l-1.49.7a2.49,2.49,0,0,0-2.83-.12c-1.49,1,0,4.1,1.07,3.88a25.31,25.31,0,0,0,4.27-2.28Z" transform="translate(-14.7 -20.1)"/><path class="cls-44" d="M268.68,108.39s4.17-2.47,7.12-4.72c-2.87,2.19-7,5.11-7.21,5.26A4.21,4.21,0,0,1,268.68,108.39Z" transform="translate(-14.7 -20.1)"/><path class="cls-44" d="M285.49,96.67a30.29,30.29,0,0,1-5.84.2c-.09-.74-.18-1.53-.26-2.44A20.68,20.68,0,0,1,279.1,90c.25-1.81.93-4.71,3.12-4.35C286.12,86.3,285.49,96.6,285.49,96.67Z" transform="translate(-14.7 -20.1)"/><path class="cls-39" d="M285.06,96.72c-.08,2.07.05,5.41-1.19,7.1-1.92,2.63-14.5,7.16-14.5,7.16s-.51.21-.81-1.1a2.11,2.11,0,0,1,0-.95s4.27-3,7.22-5.26a21.79,21.79,0,0,1,4.34-2.66c-.16-1.62-.32-2.82-.49-4.14A24.66,24.66,0,0,0,285.06,96.72Z" transform="translate(-14.7 -20.1)"/><path class="cls-39" d="M268.56,109.88a1.91,1.91,0,0,1,0-.91A2.81,2.81,0,0,0,268.56,109.88Z" transform="translate(-14.7 -20.1)"/><path class="cls-46" d="M270.42,114.7,254,113.59a1.18,1.18,0,0,1-1.07-1l-1.56-11.37a1,1,0,0,1,1-1.11l15.37,1a1,1,0,0,1,.9.84Z" transform="translate(-14.7 -20.1)"/><path class="cls-47" d="M268.52,74.68s-.71,2,.47,2.77a.93.93,0,0,0,.88,1.22c1.2.2.11-3.74.11-3.74" transform="translate(-14.7 -20.1)"/><path class="cls-39" d="M273,82s0,.49-.07.94-.13.72-.15.92a3.42,3.42,0,0,0,.16,1.2c.15.27.48,0,.78.05,2.95.81,3.36-1.06,3.36-1.06a13.82,13.82,0,0,1,.25-3.93" transform="translate(-14.7 -20.1)"/><path class="cls-39" d="M269.85,79.57A4.32,4.32,0,0,0,271.27,82a3.61,3.61,0,0,0,2.86.61A4.54,4.54,0,0,0,276,74.44c-1.33-1-4.64-1.71-6.05-.73S269.49,78.08,269.85,79.57Z" transform="translate(-14.7 -20.1)"/><path class="cls-48" d="M277.75,79.13a4.63,4.63,0,0,1-3.62,3.46,3.77,3.77,0,0,1-2.61-.43,6.37,6.37,0,0,0,1.72.09,4.74,4.74,0,0,0,3.7-3.45A5.07,5.07,0,0,0,274.8,74a2.83,2.83,0,0,0-.47-.29,4.56,4.56,0,0,1,1.66.73A4.63,4.63,0,0,1,277.75,79.13Z" transform="translate(-14.7 -20.1)"/><path class="cls-47" d="M267.69,73.64a2.78,2.78,0,0,0,2.39,2.24c1.16.16,3.41.15,4.18-.73,0,1.16,2.12,3.36,3.18,3.71-.05.77-.15,1.22-.25,1.9.53.26,1.33-.46,1.64-1s1.45-3.69,1.15-5.11-.91-2.61-2.35-2.54a3,3,0,0,0-5.42-1.41c.06-.09-.82-.26-.89-.27a2.67,2.67,0,0,0-1.09,0,3.51,3.51,0,0,0-1.74,1.06,2.89,2.89,0,0,0-.8,1.66A2.26,2.26,0,0,0,267.69,73.64Z" transform="translate(-14.7 -20.1)"/><path class="cls-39" d="M275.75,76.81a.47.47,0,0,1,.17-.33.83.83,0,0,1,1.23.21c.44.53.33,2.8-.65,2.09A2.23,2.23,0,0,1,275.75,76.81Z" transform="translate(-14.7 -20.1)"/><path class="cls-49" d="M277,82.85a7.75,7.75,0,0,1,.94,1.32,13.84,13.84,0,0,1-1.45,1.09,30.24,30.24,0,0,1-2.89,1.48l-.66-1.64S275.7,83.6,277,82.85Z" transform="translate(-14.7 -20.1)"/><path class="cls-49" d="M272.9,85.1a8,8,0,0,0-1.24,1.32,4.49,4.49,0,0,1,0-2.22s.69-1.06,1.19-1.22A7.26,7.26,0,0,0,272.9,85.1Z" transform="translate(-14.7 -20.1)"/><path class="cls-49" d="M278.8,91.36l.15,2.75c.06.91.07,1.84.19,2.73l-.15-.15a32.38,32.38,0,0,0,6.07,0,14.72,14.72,0,0,1-3,.4A24.28,24.28,0,0,1,279,97h-.13l0-.14a25.57,25.57,0,0,1-.11-2.76C278.7,93.2,278.73,92.28,278.8,91.36Z" transform="translate(-14.7 -20.1)"/><path class="cls-49" d="M267.1,90.2l.12,4.64c0,1.55.14,3.09.22,4.64a23.93,23.93,0,0,1-.57-4.63A28.93,28.93,0,0,1,267.1,90.2Z" transform="translate(-14.7 -20.1)"/><ellipse class="cls-50" cx="78.34" cy="227.74" rx="16.36" ry="1.5"/><path class="cls-38" d="M111.68,192.39l1.18-11.75a14.29,14.29,0,0,1-3.49,3.08l-2-3.63a3.55,3.55,0,0,0,.28-.29,51.54,51.54,0,0,0-3.88-7.33,4.6,4.6,0,0,0-.67-1l0,0c-.09-.09-.15-.16-.23-.23a5.33,5.33,0,0,0-2.16-1.2L99,169.23s0-.54,0-1.23v-.28h0l.47,0a5.15,5.15,0,0,0,1.07-.12,2.52,2.52,0,0,0,1.91-1.84,6,6,0,0,0,.17-1,.74.74,0,0,0,.31-.32.38.38,0,0,1,.08-.17c.07-.11.19-.07.3-.09a.56.56,0,0,0,.35-.23,1.16,1.16,0,0,0,.21-.67,2.82,2.82,0,0,0-.42-1.77.8.8,0,0,0-.26-.22c.28-.26.06-1.19-.09-1.49a1.28,1.28,0,0,0-.3-.36h.06a1,1,0,0,0,.4-1.56.31.31,0,0,0-.17-.13.73.73,0,0,0-.52,0,1.71,1.71,0,0,0,0-.9,1.18,1.18,0,0,0-.72-.59,2.35,2.35,0,0,0-1-.05,5.47,5.47,0,0,0-1,.19,1.32,1.32,0,0,1-.52.08,2.45,2.45,0,0,1-.56-.23,2.54,2.54,0,0,0-1-.15,4.46,4.46,0,0,0-1.1.09v57.09l0-.58h0a60,60,0,0,1,2.67,6,2.56,2.56,0,0,1,0,.52A53.08,53.08,0,0,0,98,225.2c-.45,2.52-.88,5.45-1.23,7.94V234a5.72,5.72,0,0,0,2.68,4.85c2.24-5,4.84-10.63,6.32-15.88a9.58,9.58,0,0,0,.23-1.32v.06c.65-3.44-.07-7.56-.23-9.64a55.61,55.61,0,0,0-.86-6.11c.81-.11,1.37-.24,1.37-.24,1.76-.27,4.47-3.52,4.47-3.52l.69-7,0,0a1.79,1.79,0,0,0,.53-.7,4.63,4.63,0,0,0,.18-1.71C112.07,192.51,111.68,192.39,111.68,192.39Zm-8.44-8.9a6.35,6.35,0,0,1,0-.76v0l.36-.14.76,1.14C104,183.63,103.61,183.56,103.24,183.49Z" transform="translate(-14.7 -20.1)"/><g id="_Group_" data-name="&lt;Group&gt;"><path id="_Path_" data-name="&lt;Path&gt;" class="cls-51" d="M90.3,242.19s-.12,2.54-.18,3.19-1.88.61-2.08.27a20.06,20.06,0,0,1-.24-3.33" transform="translate(-14.7 -20.1)"/><path id="_Path_2" data-name="&lt;Path&gt;" class="cls-52" d="M87.56,245.85a6.11,6.11,0,0,0,0,2c.16.28,2.55.57,3.11.72a6.07,6.07,0,0,0,1.7.13c1.48-.16,2.49-.74,2.54-1,.18-1.07-2.79-.85-4.74-3.13a.59.59,0,0,0-.37.33,1,1,0,0,1-1.13.61,1.66,1.66,0,0,1-.78-.52A1.2,1.2,0,0,0,87.56,245.85Z" transform="translate(-14.7 -20.1)"/></g><g id="_Group_2" data-name="&lt;Group&gt;"><path id="_Path_3" data-name="&lt;Path&gt;" class="cls-51" d="M96.58,238.63s-.87,2.38-1.11,3-2,0-2.07-.39a20.79,20.79,0,0,1,.76-3.24" transform="translate(-14.7 -20.1)"/><path id="_Path_4" data-name="&lt;Path&gt;" class="cls-52" d="M92.89,241.27a6.33,6.33,0,0,0-.57,1.86c.08.32,2.26,1.33,2.75,1.65a6.23,6.23,0,0,0,1.58.66c1.47.3,2.6.07,2.72-.16.49-1-2.41-1.68-3.58-4.46a.61.61,0,0,0-.46.19,1,1,0,0,1-1.25.23,1.65,1.65,0,0,1-.59-.73A1.12,1.12,0,0,0,92.89,241.27Z" transform="translate(-14.7 -20.1)"/></g><path class="cls-53" d="M102.74,219.2a5.22,5.22,0,0,1,.82,2.5c.63-3.44-.07-7.56-.23-9.64a61.44,61.44,0,0,0-2.63-13l-9.63-2.74a31,31,0,0,0,.13,8.19c.63,4.27,5.85,13,6,15C97.18,219.5,101.16,217.13,102.74,219.2Z" transform="translate(-14.7 -20.1)"/><path class="cls-53" d="M93.6,238.73l3,1.1c2.34-5.2,5.19-11.27,6.77-16.87a10,10,0,0,0,.2-3.81,4.48,4.48,0,0,0-1.28-2c-2.13-1.51-5.23,1.64-5.23,1.64a2.17,2.17,0,0,1,0,.6,53.08,53.08,0,0,0-1.51,5.85C94.53,230.92,93.6,238.73,93.6,238.73Z" transform="translate(-14.7 -20.1)"/><path class="cls-53" d="M95.05,195.85s-.31,10.44-1,22.28a184.26,184.26,0,0,1-3.51,25c-1.45,0-3.15,0-3.15,0s-1.8-12.75-1.59-22c-1.36-11.06-2.79-12.91-1.71-25C85.59,189.88,95.05,195.85,95.05,195.85Z" transform="translate(-14.7 -20.1)"/><path class="cls-39" d="M104.19,178.69l3.49,6.33-3.26,2.14s-2.64-3.59-3.76-5.47" transform="translate(-14.7 -20.1)"/><path class="cls-44" d="M100.67,171.44a46.61,46.61,0,0,1,4.58,8.36,13,13,0,0,1-4.84,3c-3,1.06-1.25-4.11-1.25-4.11" transform="translate(-14.7 -20.1)"/><path class="cls-44" d="M101.7,175.35c-.18,1.91-.55,3.8-.83,5.7a51,51,0,0,0-.34,5.23,59.6,59.6,0,0,0-.2,7.32,3.36,3.36,0,0,0,.63,2.11,2.85,2.85,0,0,1,.41.44.52.52,0,0,1,0,.56c-.08.08-.19.13-.27.2a.76.76,0,0,0-.13.73,2.83,2.83,0,0,1,.18.75,1.13,1.13,0,0,1-.66,1,6.63,6.63,0,0,1-1.63.37c-.66.15-1.3.33-2,.44a24.37,24.37,0,0,1-4,.35,48.61,48.61,0,0,1-8.92-.89c-.69-.14-1.71-.51-1.4-1.43a8,8,0,0,1,.75-1.2,4.18,4.18,0,0,0,.34-1.92c.06-4.51.23-9,.08-13.47,0-1.16-.26-2.62.29-3.7,1.16-2.31,4.35-3.82,5.74-6,.43-.66-.31-1.55.31-2a3.57,3.57,0,0,1,.82-.32s1.66,0,2,0a53.43,53.43,0,0,1,5.37.43,5.42,5.42,0,0,1,2.16,1.21,4,4,0,0,1,1.27,3.58" transform="translate(-14.7 -20.1)"/><path class="cls-39" d="M92.69,165.35c-.17,1.14-.47,3.74-.47,3.74a3.86,3.86,0,0,1-1.3.51,4.58,4.58,0,0,0,4.87,2.05A3.47,3.47,0,0,0,98.28,170l-1.66-.77a20.8,20.8,0,0,0-.1-3" transform="translate(-14.7 -20.1)"/><path class="cls-54" d="M98.49,162.54a2.27,2.27,0,0,0,.24,1.59,1.41,1.41,0,0,0,.79.8.85.85,0,0,0,1-.44.6.6,0,0,1,.08-.16c.07-.11.19-.06.31-.09a.61.61,0,0,0,.34-.23,1.24,1.24,0,0,0,.22-.67,2.88,2.88,0,0,0-.42-1.77.66.66,0,0,0-.26-.21c.27-.27.05-1.2-.1-1.5a1.24,1.24,0,0,0-1.1-.67" transform="translate(-14.7 -20.1)"/><path class="cls-39" d="M98.53,158.78a8.42,8.42,0,0,1,1.54,7,2.52,2.52,0,0,1-1.91,1.84A6.19,6.19,0,0,1,92.7,166c-1.29-1.47-.84-4.29-.53-6.06.28-1.61,1.09-3.7,3.11-3.25A5.69,5.69,0,0,1,98.53,158.78Z" transform="translate(-14.7 -20.1)"/><path class="cls-54" d="M93.15,159.68a1.71,1.71,0,0,0,1.81.56,5.13,5.13,0,0,1,.72-.25,2.86,2.86,0,0,1,1.22.16,5.68,5.68,0,0,0,1.74.15,2.11,2.11,0,0,0,.86-.19,2.67,2.67,0,0,0,.48-.32,1.94,1.94,0,0,1,.27-.23l.23-.08a1,1,0,0,0,.41-1.55.49.49,0,0,0-.18-.14.76.76,0,0,0-.51.06,1.82,1.82,0,0,0-.06-.9,1.12,1.12,0,0,0-.72-.59,2.53,2.53,0,0,0-1-.05,6.52,6.52,0,0,0-1,.19,1.53,1.53,0,0,1-.52.08,2.21,2.21,0,0,1-.55-.23,2.61,2.61,0,0,0-1-.15,3.72,3.72,0,0,0-1.81.33,1.66,1.66,0,0,0-.93,1.61" transform="translate(-14.7 -20.1)"/><path class="cls-54" d="M94.12,159.11a2,2,0,0,1,.36,1.23,3.6,3.6,0,0,1-.36,1.91c-.09.16-.26.33-.43.26s-.12-.09-.19-.09a.25.25,0,0,0-.14.06,2.19,2.19,0,0,0-.73.9,1.54,1.54,0,0,0,0,.74,1.65,1.65,0,0,1-.14,1.1.71.71,0,0,1-.81.15,1.14,1.14,0,0,1-.47-.26c-.21-.25-.06-.84-.4-.91a1.28,1.28,0,0,1-.91-1,1.81,1.81,0,0,1,.11-1,5.15,5.15,0,0,0,.13-1,4.46,4.46,0,0,1,.67-1.94,5,5,0,0,1,.7-.75,2.8,2.8,0,0,1,.83-.59,1.14,1.14,0,0,1,1,.05" transform="translate(-14.7 -20.1)"/><path class="cls-39" d="M93.78,162.69a1.4,1.4,0,0,0-.29-.52.52.52,0,0,0-.55-.14.67.67,0,0,0-.33.48,1.71,1.71,0,0,0,.12,1.45.67.67,0,0,0,.41.29.53.53,0,0,0,.43-.16.8.8,0,0,0,.19-.43" transform="translate(-14.7 -20.1)"/><path class="cls-55" d="M96.65,167.72a6.53,6.53,0,0,1-2.89-1.2,2.14,2.14,0,0,0,1.52,1.63,4.13,4.13,0,0,0,1.34.09" transform="translate(-14.7 -20.1)"/><path class="cls-49" d="M101.4,177.39a34.8,34.8,0,0,0-.75,5c-.05.56-.4,1.87-.11,2.38a.06.06,0,0,0,.1,0c.3-.42.15-1.52.19-2a52.38,52.38,0,0,1,.66-5.31c0-.07-.08-.09-.09,0Z" transform="translate(-14.7 -20.1)"/><path class="cls-56" d="M94.89,205.58c0,2.41-.43,4.79-.57,7.19a0,0,0,0,0,.06,0,64.1,64.1,0,0,0,.57-7.19,0,0,0,1,0-.06,0Z" transform="translate(-14.7 -20.1)"/><path class="cls-39" d="M103.57,192a3.49,3.49,0,0,1-.18,3.1,3.81,3.81,0,0,0-.31.56,3.41,3.41,0,0,0-.14.55c0,.23-.09.45-.15.67a1,1,0,0,1-.17.38c-.19.24-.43.55-.73.22a2.6,2.6,0,0,1-.43-1.18c0-.23,0-.76,0-1-.2.16-.27-.24-.27-.36a5.94,5.94,0,0,1,1.18-3.78" transform="translate(-14.7 -20.1)"/><path class="cls-39" d="M79.19,185.07c1.74.16,2.23,2.34,2.23,2.34,0-1.12,3.36-7.46,3.36-7.46l-3.33-4.13s-4.54,8.05-4.59,10.31A2.24,2.24,0,0,1,79.19,185.07Z" transform="translate(-14.7 -20.1)"/><path class="cls-39" d="M90.17,192.83a78.57,78.57,0,0,0-8.85-8.05s-1.68-1.48-3.19-.59a2.27,2.27,0,0,0-1.26,2.23c.95,1.38,7,5.89,12.88,7.63Z" transform="translate(-14.7 -20.1)"/><path class="cls-44" d="M90.92,169.6a17.42,17.42,0,0,0-5.08,1.32c-2,.87-4.39,4.25-6.91,8.43a4.33,4.33,0,0,0,1.7,2.14,8.4,8.4,0,0,0,3.44,1.78c.12,0,4.52-6.12,6.05-7.55l.89-.86.28-1.09Z" transform="translate(-14.7 -20.1)"/><path class="cls-49" d="M87.84,176.76a13.92,13.92,0,0,0-2.42,3.64A16.47,16.47,0,0,0,84,183.25a.08.08,0,0,0,.14.06c1.38-2.05,2-4.71,3.76-6.49a0,0,0,0,0-.06-.06Z" transform="translate(-14.7 -20.1)"/><path class="cls-56" d="M86.42,200.32a13.34,13.34,0,0,1-2,3c0,.05,0,.12.07.07a7.17,7.17,0,0,0,2-3.07s-.06-.08-.08,0Z" transform="translate(-14.7 -20.1)"/><path class="cls-57" d="M103.83,205.72a17.13,17.13,0,0,1-4.93.31,28.06,28.06,0,0,1-10-3.55,73.33,73.33,0,0,1,1.83-9.12c1.38-4.62,1-12.72,1-12.72s8.65,3.89,14.88,3.24C105.57,190.88,103.83,205.72,103.83,205.72Z" transform="translate(-14.7 -20.1)"/><path class="cls-58" d="M106.68,183.88a13.66,13.66,0,0,0,3.77-3.24l-2.15,21.55s-2.71,3.25-4.47,3.53C103.83,205.72,105.41,189.31,106.68,183.88Z" transform="translate(-14.7 -20.1)"/><path class="cls-39" d="M94.4,194c-.32-.51-1.93-.2-2.41-.39A5.49,5.49,0,0,1,90.9,193h0c0-.07.13-.57.16-.72s-.64-.06-1.18-.07a1.84,1.84,0,0,1-.93-.27l-.56,1.85a5.69,5.69,0,0,1,1.39.71,2.94,2.94,0,0,0,1.86,1.45c1.11.17,1.21.1,1.52-.1a1.58,1.58,0,0,0,.27-.26h0a1.15,1.15,0,0,0,.31-.23.65.65,0,0,0,.12-.34h0a1,1,0,0,0,.3-.2,1.31,1.31,0,0,0,.08-.4s.18-.18.19-.26A.24.24,0,0,0,94.4,194Z" transform="translate(-14.7 -20.1)"/><path class="cls-39" d="M109.23,192.91a3,3,0,0,0-.59.6,1.1,1.1,0,0,0-.13.46s-.31.32-.31.49a1.84,1.84,0,0,0,0,.38,1.64,1.64,0,0,0-.19.38.48.48,0,0,0,.07.24.17.17,0,0,0,.14,0,1.62,1.62,0,0,0,.29-.25s0,.13.06.16.33-.18.42-.26a1.7,1.7,0,0,0,.53-.7,4.63,4.63,0,0,0,.18-1.71c-.08-.25-.47-.36-.47-.36Z" transform="translate(-14.7 -20.1)"/><ellipse class="cls-50" cx="220.42" cy="228.92" rx="16.36" ry="1.5"/><path class="cls-38" d="M245,239.71h-2.79c-2.11-5.34-5-10.73-6.73-14.65v0a25.61,25.61,0,0,1-1.29-3.39l0-.11a1.6,1.6,0,0,1-.05-.21c0-.14-.07-.28-.1-.42s-.06-.3-.1-.44-.05-.29-.08-.43-.08-.41-.12-.63v0a.77.77,0,0,0,0-.15c-.14-.74-.26-1.55-.39-2.43H233c-.71,3-1.27,5.35-1.27,5.35a31.63,31.63,0,0,1,1.84,7.49c.31,3-.36,6.56-.47,10.06h-3c-.86-6.22-2.87-14.4-3.34-17.84a59.3,59.3,0,0,1-.49-6h0s-.61-12.55-.21-18.5a28.3,28.3,0,0,1,1.94-7,2.85,2.85,0,0,1,.34-2.21,15.11,15.11,0,0,0,.6-4.87,3.47,3.47,0,0,0-.5-1.15c-1.41,3-3.66,7.5-4.88,7.5s-4.57-9.29-4.64-9.48a1.8,1.8,0,0,0-.58-.76,3.23,3.23,0,0,1-1.16-1.18,4,4,0,0,1-.48-1.14c0-.33.11-.31.13-.48s-.07-.21,0-.56.3-.3.38-.45a1,1,0,0,0,.05-.25,2.36,2.36,0,0,1-.1-.87c.06-.38.12-1.11.12-1.11a.24.24,0,0,0,0-.08.08.08,0,0,1,0,0,1.23,1.23,0,0,1-.08-.3,5.22,5.22,0,0,1,.08-1.42c.12-.11.34-.06.46.34s.09.68.15.88a4.84,4.84,0,0,0,.4.76c.18.32.36.61.36.61.15.15.28.33.39.26s.92.15,1.12.33a7.76,7.76,0,0,1,.69,1.35,7.59,7.59,0,0,1,0,2,3.43,3.43,0,0,0,.52,1.66l2,3.47,1.39-3.41a1.41,1.41,0,0,1-.17-.18,27.74,27.74,0,0,1,2.83-5.83,7.77,7.77,0,0,1,3.65-2.9h0a0,0,0,0,0,0,0,9.92,9.92,0,0,1,2.23-.56,2.54,2.54,0,0,1,.77-.61,2.38,2.38,0,0,1,.7-.22l0-.34c0-.2,0-.41,0-.61v0a3.67,3.67,0,0,1-1.74.09c-.39-.25-.83-.2-1-3.15-.45-.23-.79-.26-.62-.79,0-.14.53-1.29.53-1.43a16.71,16.71,0,0,1,.09-1.87c-1.58-4,1.55-4.52,2.18-4.58a4.53,4.53,0,0,1,4.45-.55,5.94,5.94,0,0,1,3.75,3.43h0c2.27,3.58,1.28,13.34,1.28,13.34l-.63.07c1.46,2.9,1,8.14,1,8.14s0,.12-.21.21c-.14.72-.42,2.06-.62,2.72-.27.92-1.58,6.59-2.86,6.76a.84.84,0,0,1-.25.38,14.28,14.28,0,0,1,2.46,6.29,14.11,14.11,0,0,1-.9,5.68c-.49,1.69-2,12.81-2,13.12,0,.1-.18.2-.55.28a28.18,28.18,0,0,0,.08,3.72,69.86,69.86,0,0,1,2.63,6.56c.88,3.15,1.82,7.82,2.57,10.92h0S244.72,238.76,245,239.71Z" transform="translate(-14.7 -20.1)"/><g id="_Group_3" data-name="&lt;Group&gt;"><g id="_Group_4" data-name="&lt;Group&gt;"><path id="_Path_5" data-name="&lt;Path&gt;" class="cls-59" d="M232.53,156.72s-4.39.13-2.06,5.13S232.53,156.72,232.53,156.72Z" transform="translate(-14.7 -20.1)"/><path id="_Path_6" data-name="&lt;Path&gt;" class="cls-60" d="M231.31,158.54s-1.18.73-1.17,4.65a13.54,13.54,0,0,1-.52,1.42c-.16.53.17.56.62.78.18,3,.62,2.9,1,3.16s3.84-.4,6-1.48,2.92-4.31,2-6.28S233.86,156.84,231.31,158.54Z" transform="translate(-14.7 -20.1)"/><path id="_Path_7" data-name="&lt;Path&gt;" class="cls-59" d="M241.12,161.31c.35,1.86-.55,4.7-4.19,5.92,0,0-.33-1.12-.56-2.22s-3.32-2.35-4.66-3.55l-.18-.18a2.77,2.77,0,0,1,0-3.65,4.52,4.52,0,0,1,5.37-1.44A6.15,6.15,0,0,1,241.12,161.31Z" transform="translate(-14.7 -20.1)"/><path id="_Path_8" data-name="&lt;Path&gt;" class="cls-60" d="M232.35,165.44a4.56,4.56,0,0,1,.64,3.07c0,.21,0,.41,0,.61a18.12,18.12,0,0,1-.33,2.25l4.2-.1a25.42,25.42,0,0,1,.1-4S231,164,232.35,165.44Z" transform="translate(-14.7 -20.1)"/><path id="_Path_9" data-name="&lt;Path&gt;" class="cls-61" d="M233,169.12a12.55,12.55,0,0,0,2.78-1.41c-1.17.38-2.74.8-2.74.8C233,168.72,233,168.92,233,169.12Z" transform="translate(-14.7 -20.1)"/></g><g id="_Group_5" data-name="&lt;Group&gt;"><path id="_Path_10" data-name="&lt;Path&gt;" class="cls-60" d="M229.36,198l6.57-7.07s4,4.2,3.23,8.82a42.41,42.41,0,0,1-1.23,4.53c-.21,1-.72,15-.43,16s1.81,3.66,2.63,6.56c1,3.49,2,8.86,2.82,11.88s-.52,7.05-.8,6c-2.43-8.72-8.82-19.06-9.86-23.45S230.45,208.78,229.36,198Z" transform="translate(-14.7 -20.1)"/><path class="cls-61" d="M233.68,225.06c-.15-1.14-.36-2.29-.46-3.44a16.41,16.41,0,0,1,1.28-7.93l-4.08-6.91h-.16c0,.4.09.8.13,1.19s.07.66.1,1,.1.87.15,1.29c.16,1.48.33,2.85.49,4.12,0,.32.08.64.12.94.11.77.21,1.5.32,2.19s.21,1.3.32,1.88c.06.38.14.74.2,1.08,0,.14.07.29.1.44s.06.28.1.42a2.25,2.25,0,0,0,.05.22Z" transform="translate(-14.7 -20.1)"/><path id="_Path_11" data-name="&lt;Path&gt;" class="cls-60" d="M240.15,238.45s2,5.7,1.85,6.43a22.2,22.2,0,0,1-.64,2.15c0,.08-1.48,1.23-.53,1.2s3.19-3,3.52-3.23a1.39,1.39,0,0,0,.66-1.46,6,6,0,0,0-1.22-2.17,19,19,0,0,1-1-3.59Z" transform="translate(-14.7 -20.1)"/><path id="_Path_12" data-name="&lt;Path&gt;" class="cls-52" d="M239.56,248.49a5.82,5.82,0,0,1,1.55-1.24h0c.18-.22.32-.37.25-.22s.51.36.83.11c1.1-.89,1.41-2.2,1.95-2.83a2.13,2.13,0,0,0,.15-2.25,5.09,5.09,0,0,1,1.58.71,2.77,2.77,0,0,1,.84.93,12,12,0,0,0,.75,1.72l-1,.83-1-.91-.28.29a2.29,2.29,0,0,0-.53,1.1,5.69,5.69,0,0,1-.27.81,2.42,2.42,0,0,1-.77,1.07l-.44.36a1.81,1.81,0,0,1-1.17.42h-2.07a.47.47,0,0,1-.48-.52A.91.91,0,0,1,239.56,248.49Z" transform="translate(-14.7 -20.1)"/></g><g id="_Group_6" data-name="&lt;Group&gt;"><path id="_Path_13" data-name="&lt;Path&gt;" class="cls-60" d="M224.39,247.61c.15-.19,1.82-.62,2.59-1a4.64,4.64,0,0,0,1.7-1.94,19.71,19.71,0,0,0-.2-3.56c-.73-6.34-3-15.51-3.52-19.22-.88-6.43-.64-13.17.91-23.77l8.62-7.94s3,4.59,2.57,9.27c-.26,2.72-2.44,3.33-2.73,4.41S230,222.16,230,222.16a31.63,31.63,0,0,1,1.84,7.49c.36,3.38-.55,7.49-.48,11.41a13,13,0,0,0,.34,3.16c.34.68,1.12,1.45,1.16,2.35a1.37,1.37,0,0,1-.94,1.31c-.64.27-1-.08-1.26-.07-1.31.07-1.59,1-3.85,1.2a3.6,3.6,0,0,1-2.32-.73A.49.49,0,0,1,224.39,247.61Z" transform="translate(-14.7 -20.1)"/><path id="_Path_14" data-name="&lt;Path&gt;" class="cls-52" d="M224.27,248.42a1.68,1.68,0,0,0,.47.52,2.4,2.4,0,0,0,1.45.45h1.1a2.44,2.44,0,0,0,1.27-.34,5.48,5.48,0,0,0,.72-.46,2.33,2.33,0,0,1,1.11-.51,3.67,3.67,0,0,1,.72,0l.07,1.33h1.52a8,8,0,0,1,.39-1.9,2.56,2.56,0,0,0-.11-1.16,5.33,5.33,0,0,0-1-1.55c-.06.21-.38,1.46-1.54,1.65-.81.14-1.89,1-3.3.95-.41,0-.83-.5-.58-.61s-.45,0-.89.17a13.57,13.57,0,0,0-1.43.71C224.1,247.74,224.12,248.15,224.27,248.42Z" transform="translate(-14.7 -20.1)"/></g><path id="_Path_15" data-name="&lt;Path&gt;" class="cls-59" d="M224.44,215.88s1.46.73,6.79.93l1.52,0h1c2.88,0,4.24-.28,4.23-.55s1.47-11.43,2-13.11a14.1,14.1,0,0,0,.89-5.69c-.17-3-2.59-6.68-3.25-7.34L226.36,190s-1.93,4.57-2.12,7.4C223.85,203.33,224.44,215.88,224.44,215.88Z" transform="translate(-14.7 -20.1)"/><path id="_Path_16" data-name="&lt;Path&gt;" class="cls-60" d="M242.2,180.88s-.44,2.27-.72,3.2-1.65,6.88-2.95,6.77-8.43-6-8.43-6l1-2,6.27,3a80,80,0,0,1,1.07-8.4Z" transform="translate(-14.7 -20.1)"/><g id="_Group_7" data-name="&lt;Group&gt;"><path class="cls-61" d="M240.39,181.13a39.45,39.45,0,0,1-2.43,6.64c-.22.3-4.43-1.22-4.43-2.85l4.35-4.94Z" transform="translate(-14.7 -20.1)"/></g><path id="_Path_17" data-name="&lt;Path&gt;" class="cls-62" d="M236.25,170.59a6.59,6.59,0,0,1,3.93,1c2.72,2,2.13,9.52,2.13,9.52s.13.4-1.67.3a13.38,13.38,0,0,1-3.26-.62l.53-6.12Z" transform="translate(-14.7 -20.1)"/><path id="_Path_18" data-name="&lt;Path&gt;" class="cls-62" d="M241,174.83s.23,4.39-.57,6.61a7.59,7.59,0,0,1-1.47-.19Z" transform="translate(-14.7 -20.1)"/><g id="_Group_8" data-name="&lt;Group&gt;"><path class="cls-62" d="M237.7,170.94c-.07-.5-.21-1.08-.67-1.27a1.16,1.16,0,0,0-.41-.09,13.4,13.4,0,0,0-2.68-.21,3.84,3.84,0,0,0-1.72.31,4.22,4.22,0,0,0-1.69,2.14Z" transform="translate(-14.7 -20.1)"/></g><g id="_Group_9" data-name="&lt;Group&gt;"><path class="cls-41" d="M226.52,188.2a15.11,15.11,0,0,0,.6-4.87c-.14-.89-.93-1.37-1.29-3.35a7.32,7.32,0,0,1,1.18-5.4c.82-1.21,2-3.65,2.2-3.72,3.46-1.06,4-.55,6.35-.45a19.26,19.26,0,0,1,3,.35,4,4,0,0,1,3,3.36,13.16,13.16,0,0,1-.71,6.81c-.53,1.65-3.69,7.37-2.9,8.47a4,4,0,0,1,.68,1c.2,1.15-1.67,1.44-3.53,1.65a29.16,29.16,0,0,1-5.36,0C224.49,191.71,226.35,188.52,226.52,188.2Z" transform="translate(-14.7 -20.1)"/></g><path id="_Path_19" data-name="&lt;Path&gt;" class="cls-62" d="M226.19,180.47a4.73,4.73,0,0,0,.34,1.33,3.92,3.92,0,0,0,1.73.26,30.77,30.77,0,0,0,1-5S226.19,180,226.19,180.47Z" transform="translate(-14.7 -20.1)"/><g id="_Group_10" data-name="&lt;Group&gt;"><path id="_Path_20" data-name="&lt;Path&gt;" class="cls-60" d="M227.84,179.4s-4.26,10.28-6.1,10.28c-1.35,0-4.64-9.49-4.64-9.49l2.08-1,2.32,4,2.84-7Z" transform="translate(-14.7 -20.1)"/><path id="_Path_21" data-name="&lt;Path&gt;" class="cls-60" d="M219.6,179.91a4,4,0,0,1-.64-1.85,7.67,7.67,0,0,0,0-2,7.41,7.41,0,0,0-.69-1.35c-.2-.18-.94-.46-1.12-.33s-.41-.45-.71-.4a.64.64,0,0,0-.55.57c0,.28-.4.33-.45.53a2.4,2.4,0,0,1-.1.52c-.07.15-.29.08-.37.45s0,.38,0,.55-.18.16-.13.49a4,4,0,0,0,.48,1.14,3.23,3.23,0,0,0,1.16,1.18,2.22,2.22,0,0,1,.68.93Z" transform="translate(-14.7 -20.1)"/><g id="_Group_11" data-name="&lt;Group&gt;"><path id="_Path_22" data-name="&lt;Path&gt;" class="cls-61" d="M217.13,174.61a3.1,3.1,0,0,0,.76.8c.2.18.17.3.39.49-.38,0-.31-.25-.8-.61a1,1,0,0,1-.51-.62.09.09,0,0,1,.16-.06Z" transform="translate(-14.7 -20.1)"/></g></g><g id="_Group_12" data-name="&lt;Group&gt;"><path class="cls-41" d="M232.33,170.21a8.53,8.53,0,0,0-6.78,3.55,28,28,0,0,0-2.83,5.83c.74,1,3.13,2,4.85,2a17.84,17.84,0,0,0,1.79-5Z" transform="translate(-14.7 -20.1)"/></g><path id="_Path_23" data-name="&lt;Path&gt;" class="cls-63" d="M233.73,162.93a1,1,0,0,1,1.37-.45c.87.42.33,2-.3,2.22a.85.85,0,0,1-.89-.13Z" transform="translate(-14.7 -20.1)"/><path id="_Path_24" data-name="&lt;Path&gt;" class="cls-60" d="M233.5,162.93a1.06,1.06,0,0,1,1.37-.45c.87.43.39,2.05-.3,2.22a.75.75,0,0,1-.83-.3Z" transform="translate(-14.7 -20.1)"/><path class="cls-60" d="M216.8,174.15s-.71-1.16-.77-1.37a7,7,0,0,0-.15-.88c-.11-.4-.33-.45-.45-.34a5.25,5.25,0,0,0-.08,1.43,2.16,2.16,0,0,0,.11.42h0s-.06.73-.12,1.11a2.5,2.5,0,0,0,.12.93l.49.22.29-1,0-.06.36.06Z" transform="translate(-14.7 -20.1)"/><path class="cls-61" d="M215.42,173.26c.29.61.5,1.24.75,1.86a5.4,5.4,0,0,1-.45-.9A6.66,6.66,0,0,1,215.42,173.26Z" transform="translate(-14.7 -20.1)"/><path class="cls-59" d="M235.73,164.16s.76,2.33-.17,8.61a23.84,23.84,0,0,0,6.34.17s1-9.76-1.28-13.34" transform="translate(-14.7 -20.1)"/></g><g class="cls-2"><g class="cls-64"><path class="cls-4" d="M269.89,64.94c-1.8-1.17-7.52-.12-7.52-.12s1.33-.54,1.32-1.22A1.84,1.84,0,0,0,262.54,62a4.24,4.24,0,0,0-2-.27,13.06,13.06,0,0,0-4.08.91,1.18,1.18,0,1,0-1.37-1.92c.88-1.19,2.23-6.46-1.94-8.78-5.23-2.91-9.2-.51-10,1.24a5.41,5.41,0,0,0-3.71-3.34,10,10,0,0,0-7.65.77,11,11,0,0,0-2.94,2.88,5.17,5.17,0,0,0-.85,1.77,4.14,4.14,0,0,0-2.25.52c-3.08,1.72-2.08,5.61-1.43,6.49a.88.88,0,1,0-1,1.42,9.74,9.74,0,0,0-3-.67,3,3,0,0,0-1.5.2,1.37,1.37,0,0,0-.86,1.16c0,.51,1,.91,1,.91s-4.22-.78-5.56.08c-1.58,1-.66,1.3-.37,1.3l26-.35-.12-.08,31.64.43C270.79,66.7,272,66.31,269.89,64.94Z" transform="translate(-14.7 -20.1)"/></g></g><g class="cls-2"><g class="cls-64"><path class="cls-4" d="M204,35.6c-1.81-1.17-7.52-.12-7.52-.12s1.33-.53,1.32-1.22a1.85,1.85,0,0,0-1.15-1.58,4.24,4.24,0,0,0-2-.27,12.74,12.74,0,0,0-4.08.92,1.19,1.19,0,1,0-1.37-1.93c.87-1.18,2.23-6.45-1.94-8.77-5.23-2.91-9.2-.52-10,1.23a5.41,5.41,0,0,0-3.71-3.34,10.07,10.07,0,0,0-7.66.77,11.32,11.32,0,0,0-2.94,2.88A5.62,5.62,0,0,0,162,26a4,4,0,0,0-2.24.52c-3.09,1.71-2.08,5.61-1.43,6.49a.88.88,0,1,0-1,1.42,9.47,9.47,0,0,0-3-.68,3.14,3.14,0,0,0-1.49.2,1.38,1.38,0,0,0-.86,1.17c0,.5,1,.9,1,.9s-4.22-.78-5.56.09c-1.58,1-.66,1.3-.37,1.29L173,37l-.12-.08,31.64.43C204.9,37.36,206.14,37,204,35.6Z" transform="translate(-14.7 -20.1)"/></g></g><path class="cls-4" d="M87.83,142a1.38,1.38,0,1,1-1.37-1.37A1.37,1.37,0,0,1,87.83,142Z" transform="translate(-14.7 -20.1)"/><path class="cls-4" d="M94,76.68a1.38,1.38,0,1,1-1.37-1.37A1.37,1.37,0,0,1,94,76.68Z" transform="translate(-14.7 -20.1)"/><path class="cls-4" d="M228,79.84a1.38,1.38,0,1,1-1.38-1.38A1.37,1.37,0,0,1,228,79.84Z" transform="translate(-14.7 -20.1)"/><path class="cls-4" d="M272,42.53a1.38,1.38,0,1,1-1.37-1.38A1.37,1.37,0,0,1,272,42.53Z" transform="translate(-14.7 -20.1)"/><path class="cls-4" d="M356.49,70.68a1.38,1.38,0,1,1-2.75,0,1.38,1.38,0,0,1,2.75,0Z" transform="translate(-14.7 -20.1)"/><path class="cls-4" d="M40.18,118.6a1.38,1.38,0,1,1-1.38-1.38A1.37,1.37,0,0,1,40.18,118.6Z" transform="translate(-14.7 -20.1)"/><path class="cls-4" d="M28.88,179.48a.54.54,0,0,1-.54-.54v-3.81a.54.54,0,1,1,1.08,0v3.81A.54.54,0,0,1,28.88,179.48Z" transform="translate(-14.7 -20.1)"/><path class="cls-4" d="M30.79,177.57H27a.54.54,0,0,1-.54-.54.54.54,0,0,1,.54-.54h3.81a.55.55,0,0,1,.54.54A.54.54,0,0,1,30.79,177.57Z" transform="translate(-14.7 -20.1)"/><path class="cls-4" d="M114.53,31.17a.54.54,0,0,1-.54-.54V26.82a.54.54,0,0,1,.54-.54.54.54,0,0,1,.54.54v3.81A.54.54,0,0,1,114.53,31.17Z" transform="translate(-14.7 -20.1)"/><path class="cls-4" d="M116.43,29.27h-3.81a.54.54,0,0,1-.54-.54.54.54,0,0,1,.54-.54h3.81a.54.54,0,0,1,.54.54A.54.54,0,0,1,116.43,29.27Z" transform="translate(-14.7 -20.1)"/><path class="cls-4" d="M37.43,98.2a.54.54,0,0,1-.54-.54V93.85a.54.54,0,0,1,1.08,0v3.81A.54.54,0,0,1,37.43,98.2Z" transform="translate(-14.7 -20.1)"/><path class="cls-4" d="M39.33,96.29H35.52a.54.54,0,0,1-.54-.54.54.54,0,0,1,.54-.54h3.81a.54.54,0,0,1,.54.54A.54.54,0,0,1,39.33,96.29Z" transform="translate(-14.7 -20.1)"/><path class="cls-4" d="M368.2,204.31a.54.54,0,0,1-.54-.54V200a.54.54,0,1,1,1.08,0v3.81A.54.54,0,0,1,368.2,204.31Z" transform="translate(-14.7 -20.1)"/><path class="cls-4" d="M370.11,202.4H366.3a.54.54,0,0,1-.54-.54.54.54,0,0,1,.54-.54h3.81a.54.54,0,0,1,.54.54A.54.54,0,0,1,370.11,202.4Z" transform="translate(-14.7 -20.1)"/><path class="cls-4" d="M370.65,162.45a.54.54,0,0,1-.54-.54V158.1a.54.54,0,0,1,1.08,0v3.81A.54.54,0,0,1,370.65,162.45Z" transform="translate(-14.7 -20.1)"/><path class="cls-4" d="M372.55,160.55h-3.81a.54.54,0,0,1-.54-.54.54.54,0,0,1,.54-.54h3.81a.54.54,0,0,1,.54.54A.54.54,0,0,1,372.55,160.55Z" transform="translate(-14.7 -20.1)"/><ellipse class="cls-50" cx="281.93" cy="226.68" rx="9.7" ry="1.56"/><path class="cls-34" d="M299,234.05s4.67-3.15,4.64-8.11c0-6.06,3.83-3.47,4.29-8.24.43-4.43-2.09-4.16-2.76-7.13s-3-4.94-3.79,0,2.18,6.75.28,9.27-4.77-.08-5.32,4.38,1.9,7.39-.2,10.06" transform="translate(-14.7 -20.1)"/><g class="cls-64"><path class="cls-12" d="M303.12,209.52a20.34,20.34,0,0,1,1.17,6.51,11.32,11.32,0,0,1-2,6.26c-1.22,1.85-2.82,3.41-3.85,5.32a11.63,11.63,0,0,0-1.34,6.31h0a10.57,10.57,0,0,1,1.06-6.48c1.05-2,2.73-3.5,4-5.26a9.42,9.42,0,0,0,1.48-2.91A9.84,9.84,0,0,0,304,216a33.3,33.3,0,0,0-.93-6.49Z" transform="translate(-14.7 -20.1)"/></g><path class="cls-65" d="M296.15,233.92" transform="translate(-14.7 -20.1)"/><path class="cls-59" d="M298.94,233.68s1.1-5.11-1.19-7.83-3.32-3.39-3.83-5.59.87-4.7-.34-6.16-4.45-2-4.89,2.1,2.23,5.5,3,7.83-1.49,6.08.72,9.8" transform="translate(-14.7 -20.1)"/><g class="cls-64"><path class="cls-12" d="M291.56,214.59a21.23,21.23,0,0,0,.46,5.22,19,19,0,0,0,1.84,4.93,26.56,26.56,0,0,1,1.84,5,15.72,15.72,0,0,1,.46,5.29h0a24.55,24.55,0,0,0-.77-5.2,48.06,48.06,0,0,0-1.67-5,46.77,46.77,0,0,1-1.95-4.93,13.16,13.16,0,0,1-.22-5.3Z" transform="translate(-14.7 -20.1)"/></g><path class="cls-66" d="M289.84,233.34l1,11.07a2.69,2.69,0,0,0,2.67,2.44h6.18a2.68,2.68,0,0,0,2.67-2.44l1-11.07Z" transform="translate(-14.7 -20.1)"/><path class="cls-14" d="M289.84,233.34l1,11.07a2.69,2.69,0,0,0,2.67,2.44h3a2.68,2.68,0,0,0,2.67-2.44l1-11.07Z" transform="translate(-14.7 -20.1)"/><path class="cls-16" d="M290.13,234.75h12.92a1.1,1.1,0,0,0,1.1-1.1h0a1.1,1.1,0,0,0-1.1-1.1H290.13a1.09,1.09,0,0,0-1.09,1.1h0A1.09,1.09,0,0,0,290.13,234.75Z" transform="translate(-14.7 -20.1)"/></g></g></svg>